<mxfile host="65bd71144e">
    <diagram id="MdohRTkyOtAD8OSOPrCY" name="Страница 1">
        <mxGraphModel dx="1040" dy="800" grid="1" gridSize="10" guides="1" tooltips="1" connect="1" arrows="1" fold="1" page="1" pageScale="1" pageWidth="827" pageHeight="1169" math="0" shadow="0">
            <root>
                <mxCell id="0"/>
                <mxCell id="1" parent="0"/>
                <mxCell id="15" value="" style="group" parent="1" vertex="1" connectable="0">
                    <mxGeometry x="490" y="670" width="310" height="170" as="geometry"/>
                </mxCell>
                <mxCell id="4" value="Models" style="verticalAlign=top;align=left;spacingTop=8;spacingLeft=2;spacingRight=12;shape=cube;size=10;direction=south;fontStyle=4;html=1;" parent="15" vertex="1">
                    <mxGeometry width="310" height="170" as="geometry"/>
                </mxCell>
                <mxCell id="10" value="Name" style="swimlane;fontStyle=1;align=center;verticalAlign=top;childLayout=stackLayout;horizontal=1;startSize=26;horizontalStack=0;resizeParent=1;resizeParentMax=0;resizeLast=0;collapsible=1;marginBottom=0;" parent="15" vertex="1">
                    <mxGeometry x="45" y="50" width="220" height="86" as="geometry"/>
                </mxCell>
                <mxCell id="11" value="- $connection: Connection;" style="text;strokeColor=none;fillColor=none;align=left;verticalAlign=top;spacingLeft=4;spacingRight=4;overflow=hidden;rotatable=0;points=[[0,0.5],[1,0.5]];portConstraint=eastwest;" parent="10" vertex="1">
                    <mxGeometry y="26" width="220" height="26" as="geometry"/>
                </mxCell>
                <mxCell id="12" value="" style="line;strokeWidth=1;fillColor=none;align=left;verticalAlign=middle;spacingTop=-1;spacingLeft=3;spacingRight=3;rotatable=0;labelPosition=right;points=[];portConstraint=eastwest;" parent="10" vertex="1">
                    <mxGeometry y="52" width="220" height="8" as="geometry"/>
                </mxCell>
                <mxCell id="13" value="+ getValue(): array;" style="text;strokeColor=none;fillColor=none;align=left;verticalAlign=top;spacingLeft=4;spacingRight=4;overflow=hidden;rotatable=0;points=[[0,0.5],[1,0.5]];portConstraint=eastwest;" parent="10" vertex="1">
                    <mxGeometry y="60" width="220" height="26" as="geometry"/>
                </mxCell>
                <mxCell id="20" value="" style="group" parent="1" vertex="1" connectable="0">
                    <mxGeometry x="490" y="440" width="310" height="170" as="geometry"/>
                </mxCell>
                <mxCell id="3" value="Controllers" style="verticalAlign=top;align=left;spacingTop=8;spacingLeft=2;spacingRight=12;shape=cube;size=10;direction=south;fontStyle=4;html=1;" parent="20" vertex="1">
                    <mxGeometry width="310" height="170" as="geometry"/>
                </mxCell>
                <mxCell id="16" value="homeController" style="swimlane;fontStyle=1;align=center;verticalAlign=top;childLayout=stackLayout;horizontal=1;startSize=26;horizontalStack=0;resizeParent=1;resizeParentMax=0;resizeLast=0;collapsible=1;marginBottom=0;" parent="20" vertex="1">
                    <mxGeometry x="45" y="50" width="220" height="80" as="geometry"/>
                </mxCell>
                <mxCell id="19" value="+ actionMain(): void;&#10;+ actionPeople(): void;" style="text;strokeColor=none;fillColor=none;align=left;verticalAlign=top;spacingLeft=4;spacingRight=4;overflow=hidden;rotatable=0;points=[[0,0.5],[1,0.5]];portConstraint=eastwest;" parent="16" vertex="1">
                    <mxGeometry y="26" width="220" height="54" as="geometry"/>
                </mxCell>
                <mxCell id="25" value="" style="group" parent="1" vertex="1" connectable="0">
                    <mxGeometry x="410" y="220" width="285" height="140" as="geometry"/>
                </mxCell>
                <mxCell id="5" value="Router" style="verticalAlign=top;align=left;spacingTop=8;spacingLeft=2;spacingRight=12;shape=cube;size=10;direction=south;fontStyle=4;html=1;" parent="25" vertex="1">
                    <mxGeometry width="285" height="140" as="geometry"/>
                </mxCell>
                <mxCell id="21" value="Router" style="swimlane;fontStyle=1;align=center;verticalAlign=top;childLayout=stackLayout;horizontal=1;startSize=26;horizontalStack=0;resizeParent=1;resizeParentMax=0;resizeLast=0;collapsible=1;marginBottom=0;" parent="25" vertex="1">
                    <mxGeometry x="50" y="54" width="180" height="52" as="geometry"/>
                </mxCell>
                <mxCell id="24" value="+ static run(): void;" style="text;strokeColor=none;fillColor=none;align=left;verticalAlign=top;spacingLeft=4;spacingRight=4;overflow=hidden;rotatable=0;points=[[0,0.5],[1,0.5]];portConstraint=eastwest;" parent="21" vertex="1">
                    <mxGeometry y="26" width="180" height="26" as="geometry"/>
                </mxCell>
                <mxCell id="26" value="Connection" style="swimlane;fontStyle=1;align=center;verticalAlign=top;childLayout=stackLayout;horizontal=1;startSize=26;horizontalStack=0;resizeParent=1;resizeParentMax=0;resizeLast=0;collapsible=1;marginBottom=0;" parent="1" vertex="1">
                    <mxGeometry x="540" y="920" width="240" height="160" as="geometry"/>
                </mxCell>
                <mxCell id="27" value="- static $instance: Connection;&#10;- $pdo: PDO;" style="text;strokeColor=none;fillColor=none;align=left;verticalAlign=top;spacingLeft=4;spacingRight=4;overflow=hidden;rotatable=0;points=[[0,0.5],[1,0.5]];portConstraint=eastwest;" parent="26" vertex="1">
                    <mxGeometry y="26" width="240" height="44" as="geometry"/>
                </mxCell>
                <mxCell id="28" value="" style="line;strokeWidth=1;fillColor=none;align=left;verticalAlign=middle;spacingTop=-1;spacingLeft=3;spacingRight=3;rotatable=0;labelPosition=right;points=[];portConstraint=eastwest;" parent="26" vertex="1">
                    <mxGeometry y="70" width="240" height="8" as="geometry"/>
                </mxCell>
                <mxCell id="29" value="+ static getInstance(): Connection;&#10;+ __get(in $name: string): PDO;&#10; - __clone(): void;&#10;+ __wakeup(): void;" style="text;strokeColor=none;fillColor=none;align=left;verticalAlign=top;spacingLeft=4;spacingRight=4;overflow=hidden;rotatable=0;points=[[0,0.5],[1,0.5]];portConstraint=eastwest;" parent="26" vertex="1">
                    <mxGeometry y="78" width="240" height="82" as="geometry"/>
                </mxCell>
                <mxCell id="32" value="Use" style="endArrow=open;endSize=12;dashed=1;html=1;exitX=1.007;exitY=0.323;exitDx=0;exitDy=0;exitPerimeter=0;entryX=-0.024;entryY=0.635;entryDx=0;entryDy=0;entryPerimeter=0;" parent="1" source="5" target="3" edge="1">
                    <mxGeometry width="160" relative="1" as="geometry">
                        <mxPoint x="440" y="390" as="sourcePoint"/>
                        <mxPoint x="600" y="390" as="targetPoint"/>
                    </mxGeometry>
                </mxCell>
                <mxCell id="33" value="Use" style="endArrow=open;endSize=12;dashed=1;html=1;exitX=0;exitY=0;exitDx=90;exitDy=310;exitPerimeter=0;entryX=0.537;entryY=0;entryDx=0;entryDy=0;entryPerimeter=0;" parent="1" source="3" target="2" edge="1">
                    <mxGeometry width="160" relative="1" as="geometry">
                        <mxPoint x="280" y="670" as="sourcePoint"/>
                        <mxPoint x="440" y="670" as="targetPoint"/>
                    </mxGeometry>
                </mxCell>
                <mxCell id="34" value="" style="endArrow=open;html=1;endSize=12;startArrow=diamondThin;startSize=14;startFill=0;edgeStyle=orthogonalEdgeStyle;align=left;verticalAlign=bottom;exitX=1;exitY=0.474;exitDx=0;exitDy=0;exitPerimeter=0;entryX=0.471;entryY=0;entryDx=0;entryDy=0;entryPerimeter=0;" parent="1" source="4" target="26" edge="1">
                    <mxGeometry x="-1" y="306" relative="1" as="geometry">
                        <mxPoint x="580" y="880" as="sourcePoint"/>
                        <mxPoint x="653" y="900" as="targetPoint"/>
                        <Array as="points"/>
                        <mxPoint x="-305" y="276" as="offset"/>
                    </mxGeometry>
                </mxCell>
                <mxCell id="35" value="Use" style="endArrow=open;endSize=12;dashed=1;html=1;exitX=0;exitY=0;exitDx=170;exitDy=160;exitPerimeter=0;entryX=-0.012;entryY=0.516;entryDx=0;entryDy=0;entryPerimeter=0;" parent="1" source="3" target="4" edge="1">
                    <mxGeometry width="160" relative="1" as="geometry">
                        <mxPoint x="570" y="640" as="sourcePoint"/>
                        <mxPoint x="730" y="640" as="targetPoint"/>
                    </mxGeometry>
                </mxCell>
                <mxCell id="36" value="" style="group" vertex="1" connectable="0" parent="1">
                    <mxGeometry x="10" y="400" width="390" height="240" as="geometry"/>
                </mxCell>
                <mxCell id="2" value="Views" style="verticalAlign=top;align=left;spacingTop=8;spacingLeft=2;spacingRight=12;shape=cube;size=10;direction=south;fontStyle=4;html=1;" parent="36" vertex="1">
                    <mxGeometry width="390" height="240.00000000000003" as="geometry"/>
                </mxCell>
                <mxCell id="6" value="View" style="swimlane;fontStyle=1;align=center;verticalAlign=top;childLayout=stackLayout;horizontal=1;startSize=26;horizontalStack=0;resizeParent=1;resizeParentMax=0;resizeLast=0;collapsible=1;marginBottom=0;" parent="36" vertex="1">
                    <mxGeometry x="30" y="129.99823529411765" width="320" height="88.11764705882354" as="geometry"/>
                </mxCell>
                <mxCell id="9" value="+ static render(in $path: string, in $data: array) : void;" style="text;strokeColor=none;fillColor=none;align=left;verticalAlign=top;spacingLeft=4;spacingRight=4;overflow=hidden;rotatable=0;points=[[0,0.5],[1,0.5]];portConstraint=eastwest;" parent="6" vertex="1">
                    <mxGeometry y="26" width="320" height="62.117647058823536" as="geometry"/>
                </mxCell>
                <mxCell id="30" value="index.php" style="html=1;" parent="36" vertex="1">
                    <mxGeometry x="135" y="40.00176470588241" width="110" height="70.58823529411765" as="geometry"/>
                </mxCell>
                <mxCell id="37" value="Use" style="endArrow=open;endSize=12;dashed=1;html=1;exitX=-0.017;exitY=0.231;exitDx=0;exitDy=0;exitPerimeter=0;" edge="1" parent="1" source="2">
                    <mxGeometry width="160" relative="1" as="geometry">
                        <mxPoint x="254" y="300" as="sourcePoint"/>
                        <mxPoint x="410" y="300" as="targetPoint"/>
                        <Array as="points">
                            <mxPoint x="310" y="300"/>
                        </Array>
                    </mxGeometry>
                </mxCell>
            </root>
        </mxGraphModel>
    </diagram>
</mxfile>